<?xml version="1.0" encoding="utf-8"?>
<!-- Generator: Adobe Illustrator 23.0.0, SVG Export Plug-In . SVG Version: 6.00 Build 0)  -->
<svg version="1.1" id="图层_1" xmlns="http://www.w3.org/2000/svg" xmlns:xlink="http://www.w3.org/1999/xlink" x="0px" y="0px"
	 viewBox="0 0 800 450" style="enable-background:new 0 0 800 450;" xml:space="preserve">
<style type="text/css">
	.st0{fill:#FFFFFF;}
	.st1{fill:#29ABE2;}
	.st2{fill:none;stroke:#29ABE2;stroke-width:12;stroke-miterlimit:10;}
	.st3{fill:none;}
	.st4{fill:#249FE2;}
	.st5{fill:#3399FF;}
	.st6{font-family:'Impact';}
	.st7{font-size:90px;}
	.st8{font-size:72px;}
	.st9{fill:#FF9933;}
	.st10{fill:#CB5900;}
</style>
<g>
	<circle class="st0" cx="196" cy="164" r="18"/>
	<path class="st1" d="M196,152c6.6,0,12,5.4,12,12s-5.4,12-12,12s-12-5.4-12-12S189.4,152,196,152 M196,140c-13.3,0-24,10.8-24,24
		s10.8,24,24,24s24-10.8,24-24S209.3,140,196,140L196,140z"/>
</g>
<path class="st2" d="M370,230h-66c-6.6,0-12-5.4-12-12v-42c0-6.6-5.4-12-12-12h-66"/>
<path class="st2" d="M370,98h-66c-6.6,0-12,5.4-12,12v42c0,6.6-5.4,12-12,12h-66"/>
<g>
	<circle class="st0" cx="388" cy="98" r="18"/>
	<path class="st1" d="M388,86c6.6,0,12,5.4,12,12s-5.4,12-12,12s-12-5.4-12-12S381.4,86,388,86 M388,74c-13.3,0-24,10.8-24,24
		s10.8,24,24,24s24-10.8,24-24S401.3,74,388,74L388,74z"/>
</g>
<g>
	<circle class="st0" cx="388" cy="230" r="18"/>
	<path class="st1" d="M388,218c6.6,0,12,5.4,12,12s-5.4,12-12,12s-12-5.4-12-12S381.4,218,388,218 M388,206c-13.3,0-24,10.8-24,24
		s10.8,24,24,24s24-10.8,24-24S401.3,206,388,206L388,206z"/>
</g>
<path class="st2" d="M562,296h-66c-6.6,0-12-5.4-12-12v-42c0-6.6-5.4-12-12-12h-66"/>
<path class="st2" d="M562,164h-66c-6.6,0-12,5.4-12,12v42c0,6.6-5.4,12-12,12h-66"/>
<g>
	<circle class="st0" cx="580" cy="164" r="18"/>
	<path class="st1" d="M580,152c6.6,0,12,5.4,12,12s-5.4,12-12,12s-12-5.4-12-12S573.4,152,580,152 M580,140c-13.3,0-24,10.8-24,24
		s10.8,24,24,24s24-10.8,24-24S593.3,140,580,140L580,140z"/>
</g>
<g>
	<circle class="st0" cx="580" cy="296" r="18"/>
	<path class="st1" d="M580,284c6.6,0,12,5.4,12,12s-5.4,12-12,12s-12-5.4-12-12S573.4,284,580,284 M580,272c-13.3,0-24,10.8-24,24
		s10.8,24,24,24s24-10.8,24-24S593.3,272,580,272L580,272z"/>
</g>
<path class="st2" d="M754,98h-66c-6.6,0-12,5.4-12,12v42c0,6.6-5.4,12-12,12h-66"/>
<g>
	<circle class="st0" cx="772" cy="98" r="18"/>
	<path class="st1" d="M772,86c6.6,0,12,5.4,12,12s-5.4,12-12,12s-12-5.4-12-12S765.4,86,772,86 M772,74c-13.3,0-24,10.8-24,24
		s10.8,24,24,24s24-10.8,24-24S785.3,74,772,74L772,74z"/>
</g>
<path class="st2" d="M754,362h-66c-6.6,0-12-5.4-12-12v-42c0-6.6-5.4-12-12-12h-66"/>
<path class="st2" d="M754,230h-66c-6.6,0-12,5.4-12,12v42c0,6.6-5.4,12-12,12h-66"/>
<g>
	<circle class="st0" cx="772" cy="230" r="18"/>
	<path class="st1" d="M772,218c6.6,0,12,5.4,12,12s-5.4,12-12,12s-12-5.4-12-12S765.4,218,772,218 M772,206c-13.3,0-24,10.8-24,24
		s10.8,24,24,24s24-10.8,24-24S785.3,206,772,206L772,206z"/>
</g>
<g>
	<circle class="st0" cx="772" cy="362" r="18"/>
	<path class="st1" d="M772,350c6.6,0,12,5.4,12,12s-5.4,12-12,12s-12-5.4-12-12S765.4,350,772,350 M772,338c-13.3,0-24,10.8-24,24
		s10.8,24,24,24s24-10.8,24-24S785.3,338,772,338L772,338z"/>
</g>
<rect x="28.3" y="272.5" class="st3" width="263.7" height="161.5"/>
<rect x="28.3" y="350" class="st4" width="283.7" height="76"/>
<g>
	<rect x="28.3" y="263" class="st3" width="414" height="510"/>
	<text transform="matrix(1 0 0 1 28.26 343.5737)"><tspan x="0" y="0" class="st5 st6 st7">RW-</tspan><tspan x="0" y="72" class="st5 st6 st8">NodeTree</tspan></text>
	<rect x="28.3" y="263" class="st3" width="414" height="510"/>
	<text transform="matrix(1 0 0 1 28.26 343.5737)"><tspan x="0" y="0" class="st9 st6 st7">RW-</tspan><tspan x="0" y="72" class="st10 st6 st8">NodeTree</tspan></text>
</g>
</svg>
